<svg width="160" height="26" viewBox="0 0 160 26" fill="none" xmlns="http://www.w3.org/2000/svg">
<path d="M13.7256 15.472L11.4411 13.1874L13.7256 10.9027V6.3335L6.87219 13.1874L13.7256 20.0412V15.472Z" fill="#EB0028"/>
<path d="M0 1.75171V24.623H22.8762V1.75171H0ZM19.6063 21.353H3.26981V5.01545H19.6063V21.353Z" fill="#EB0028"/>
<path d="M42.4305 2.21801V12.4089H29.0416V2.21801H31.8061V9.93582H34.3503V2.21801H37.1147V9.93582H39.666V2.21801H42.4305ZM48.1838 8.55003L47.0893 9.78658V12.4089H44.3249V2.21801H47.0893V6.14798L50.4366 2.21801H53.6417L50.0031 6.43936L53.933 12.4089H50.7279L48.1838 8.55003ZM57.0071 5.23833C56.4622 5.78791 56.1898 6.47963 56.1898 7.31347C56.1898 8.14732 56.4622 8.8414 57.0071 9.39572C57.5519 9.95004 58.2271 10.2272 59.0325 10.2272C59.8379 10.2272 60.5107 9.95004 61.0508 9.39572C61.5956 8.8414 61.868 8.14732 61.868 7.31347C61.868 6.47963 61.5956 5.78791 61.0508 5.23833C60.5107 4.68401 59.8379 4.40686 59.0325 4.40686C58.2271 4.40686 57.5519 4.68401 57.0071 5.23833ZM63.0477 3.51852C64.1516 4.57505 64.7036 5.84003 64.7036 7.31347C64.7036 8.78692 64.1516 10.0543 63.0477 11.1155C61.9486 12.172 60.6078 12.7003 59.0254 12.7003C57.4477 12.7003 56.1069 12.172 55.003 11.1155C53.9038 10.0543 53.3543 8.78692 53.3543 7.31347C53.3543 5.84003 53.9038 4.57505 55.003 3.51852C56.1069 2.45727 57.4477 1.92664 59.0254 1.92664C60.6078 1.92664 61.9486 2.45727 63.0477 3.51852ZM74.7492 2.21801V12.4089H71.9777V4.69823H69.6538V5.42311C69.6538 6.55069 69.5922 7.53852 69.469 8.38658C69.3506 9.23463 69.1895 9.93109 68.9858 10.4759C68.782 11.016 68.5215 11.4543 68.204 11.7907C67.8866 12.127 67.5526 12.3616 67.202 12.4942C66.8561 12.6316 66.4605 12.7003 66.0152 12.7003C65.7736 12.7003 65.5296 12.6743 65.2832 12.6221C65.0416 12.5748 64.8592 12.5274 64.736 12.48L64.5583 12.4089V9.86476C64.7999 9.95951 65.0179 10.0069 65.2121 10.0069C65.4727 10.0069 65.6954 9.94767 65.8802 9.82922C66.0649 9.70604 66.2379 9.48811 66.3989 9.17541C66.56 8.85798 66.6808 8.38894 66.7614 7.7683C66.8467 7.14765 66.8893 6.37066 66.8893 5.43732V2.21801H74.7492ZM81.8101 8.04546L80.8649 5.06067L79.9198 8.04546H81.8101ZM82.535 10.2272H79.1878L78.4629 12.4089H75.4781L79.337 2.21801H82.3929L86.2518 12.4089H83.267L82.535 10.2272ZM92.3643 10.078H94.1836C94.4632 10.078 94.7024 9.98557 94.9014 9.8008C95.1004 9.61602 95.1999 9.39335 95.1999 9.13277C95.1999 8.86272 95.1028 8.63768 94.9085 8.45764C94.7143 8.27761 94.4726 8.18759 94.1836 8.18759H92.3643V10.078ZM94.3258 12.4089H89.5999V2.21801H97.0192V4.54899H92.3643V5.85661H94.3258C95.4202 5.85661 96.299 6.17641 96.9623 6.81601C97.6304 7.45087 97.9644 8.22549 97.9644 9.13988C97.9644 10.0495 97.6304 10.8218 96.9623 11.4566C96.299 12.0915 95.4202 12.4089 94.3258 12.4089ZM99.2831 2.21801H102.048V7.89622L106.411 2.21801H108.813V12.4089H106.049V6.73073L101.671 12.4089H99.2831V2.21801ZM116.244 7.0221C116.291 7.04105 116.355 7.06948 116.435 7.10738C116.521 7.14054 116.668 7.22582 116.876 7.36322C117.084 7.49588 117.269 7.64985 117.43 7.82515C117.591 8.00045 117.736 8.24444 117.864 8.55713C117.996 8.86509 118.063 9.20384 118.063 9.57338C118.063 10.4546 117.693 11.1961 116.954 11.7978C116.22 12.3995 115.206 12.7003 113.913 12.7003C113.41 12.7003 112.92 12.6387 112.441 12.5155C111.968 12.3971 111.572 12.2526 111.255 12.082C110.942 11.9115 110.662 11.7409 110.416 11.5704C110.17 11.3998 109.987 11.2529 109.869 11.1297L109.691 10.9521L111.297 9.28201C111.364 9.34834 111.461 9.43599 111.589 9.54496C111.721 9.64919 111.984 9.78895 112.377 9.96425C112.771 10.1395 113.162 10.2272 113.55 10.2272C114.033 10.2272 114.408 10.1253 114.673 9.92161C114.943 9.71789 115.078 9.47863 115.078 9.20384C115.078 8.62109 114.618 8.33209 113.699 8.33683H112.385V6.00585H113.55C113.967 6.00585 114.277 5.93005 114.481 5.77844C114.685 5.62683 114.787 5.43021 114.787 5.18859C114.787 4.95644 114.68 4.76929 114.467 4.62716C114.254 4.48029 113.924 4.40686 113.479 4.40686C113.157 4.40686 112.842 4.46845 112.534 4.59163C112.231 4.71007 112.013 4.83089 111.88 4.95407L111.66 5.13173L110.061 3.45457C110.089 3.41666 110.137 3.36455 110.203 3.29822C110.269 3.23189 110.421 3.10871 110.658 2.92867C110.899 2.74864 111.155 2.59466 111.425 2.46674C111.7 2.33408 112.062 2.2109 112.513 2.0972C112.963 1.98349 113.429 1.92664 113.913 1.92664C115.059 1.92664 115.988 2.22038 116.698 2.80786C117.414 3.39534 117.771 4.07284 117.771 4.84036C117.771 5.35678 117.644 5.79739 117.388 6.1622C117.132 6.52227 116.876 6.75679 116.62 6.86575L116.244 7.0221ZM128.613 2.21801V12.4089H125.849V8.47896H122.139V12.4089H119.374V2.21801H122.139V6.00585H125.849V2.21801H128.613ZM133.272 10.078H138.509V12.4089H130.507V2.21801H138.367V4.54899H133.272V6.14798H137.202V8.33683H133.272V10.078ZM142.536 5.23833C141.981 5.78791 141.704 6.47963 141.704 7.31347C141.704 8.14732 141.981 8.8414 142.536 9.39572C143.09 9.95004 143.784 10.2272 144.618 10.2272C145.134 10.2272 145.622 10.1182 146.082 9.90029C146.542 9.68235 146.873 9.46205 147.077 9.23937L147.383 8.91247L148.982 10.6607C148.944 10.7176 148.887 10.7934 148.811 10.8881C148.74 10.9781 148.569 11.1416 148.299 11.3785C148.034 11.6106 147.745 11.8167 147.432 11.9968C147.124 12.1768 146.715 12.3379 146.203 12.48C145.696 12.6269 145.168 12.7003 144.618 12.7003C143.036 12.7003 141.692 12.172 140.589 11.1155C139.489 10.0543 138.94 8.78692 138.94 7.31347C138.94 5.84003 139.489 4.57505 140.589 3.51852C141.692 2.45727 143.036 1.92664 144.618 1.92664C145.163 1.92664 145.682 1.9977 146.174 2.13984C146.667 2.28197 147.072 2.45253 147.39 2.65151C147.712 2.8505 147.991 3.04949 148.228 3.24847C148.47 3.44746 148.643 3.61802 148.747 3.76015L148.91 3.96624L147.233 5.71448C147.205 5.67658 147.167 5.6292 147.12 5.57234C147.072 5.51075 146.963 5.40652 146.793 5.25965C146.622 5.10804 146.444 4.97539 146.26 4.86168C146.075 4.74324 145.831 4.63901 145.528 4.54899C145.229 4.45423 144.926 4.40686 144.618 4.40686C143.784 4.40686 143.09 4.68401 142.536 5.23833ZM155.168 8.04546L154.223 5.06067L153.278 8.04546H155.168ZM155.893 10.2272H152.546L151.821 12.4089H148.836L152.695 2.21801H155.751L159.61 12.4089H156.625L155.893 10.2272ZM32.0548 18.2383C31.5005 18.7879 31.2233 19.4796 31.2233 20.3135C31.2233 21.1473 31.5005 21.8414 32.0548 22.3957C32.6091 22.95 33.3032 23.2272 34.1371 23.2272C34.6535 23.2272 35.1415 23.1182 35.601 22.9003C36.0606 22.6824 36.3922 22.462 36.5959 22.2394L36.9015 21.9125L38.5005 23.6607C38.4626 23.7176 38.4058 23.7934 38.33 23.8881C38.2589 23.9781 38.0883 24.1416 37.8183 24.3785C37.553 24.6106 37.264 24.8167 36.9513 24.9968C36.6433 25.1768 36.2335 25.3379 35.7218 25.48C35.2149 25.6269 34.6866 25.7003 34.1371 25.7003C32.5546 25.7003 31.2115 25.172 30.1076 24.1155C29.0084 23.0543 28.4588 21.7869 28.4588 20.3135C28.4588 18.84 29.0084 17.575 30.1076 16.5185C31.2115 15.4573 32.5546 14.9266 34.1371 14.9266C34.6819 14.9266 35.2007 14.9977 35.6934 15.1398C36.1861 15.282 36.5912 15.4525 36.9086 15.6515C37.2308 15.8505 37.5103 16.0495 37.7472 16.2485C37.9889 16.4475 38.1618 16.618 38.266 16.7602L38.4295 16.9662L36.7523 18.7145C36.7239 18.6766 36.686 18.6292 36.6386 18.5723C36.5912 18.5108 36.4822 18.4065 36.3117 18.2597C36.1411 18.108 35.9635 17.9754 35.7787 17.8617C35.5939 17.7432 35.3499 17.639 35.0467 17.549C34.7482 17.4542 34.445 17.4069 34.1371 17.4069C33.3032 17.4069 32.6091 17.684 32.0548 18.2383ZM39.5208 15.218H42.2852V20.8962L46.6487 15.218H49.0508V25.4089H46.2863V19.7307L41.9086 25.4089H39.5208V15.218ZM60.1909 15.218V25.4089H57.4264V21.479H53.7167V25.4089H50.9522V15.218H53.7167V19.0059H57.4264V15.218H60.1909ZM64.8497 23.078H70.0873V25.4089H62.0852V15.218H69.9452V17.549H64.8497V19.148H68.7797V21.3368H64.8497V23.078ZM71.3989 15.218H75.9827C77.1008 15.218 78.0104 15.5568 78.7116 16.2343C79.4128 16.907 79.7634 17.7574 79.7634 18.7855C79.7634 19.8136 79.4104 20.6664 78.7045 21.3439C78.0033 22.0167 77.096 22.3531 75.9827 22.3531H74.1634V25.4089H71.3989V15.218ZM75.8334 17.6982H74.1634V19.88H75.8334C76.1556 19.88 76.4304 19.771 76.6578 19.5531C76.8852 19.3351 76.9989 19.0817 76.9989 18.7927C76.9989 18.4989 76.8852 18.2431 76.6578 18.0251C76.4304 17.8072 76.1556 17.6982 75.8334 17.6982ZM81.0821 25.4089V15.218H88.3593V17.6982H83.8466V25.4089H81.0821ZM89.2303 15.218H91.9948V20.8962L96.3583 15.218H98.7603V25.4089H95.9958V19.7307L91.6181 25.4089H89.2303V15.218ZM108.813 15.218V25.4089H106.049V22.2038H104.592L102.844 25.4089H99.9298L102.04 21.6993C101.993 21.6803 101.929 21.6495 101.849 21.6069C101.773 21.5595 101.635 21.4505 101.436 21.28C101.237 21.1047 101.06 20.9152 100.903 20.7114C100.752 20.503 100.612 20.2211 100.484 19.8658C100.361 19.5057 100.299 19.1219 100.299 18.7145C100.299 17.7243 100.648 16.8952 101.344 16.2272C102.045 15.5544 102.934 15.218 104.009 15.218H108.813ZM103.362 17.9896C103.163 18.1791 103.064 18.4207 103.064 18.7145C103.064 19.0035 103.166 19.2451 103.369 19.4394C103.573 19.6336 103.834 19.7307 104.151 19.7307H106.049V17.6982H104.151C103.829 17.6982 103.566 17.7954 103.362 17.9896Z" fill="white"/>
</svg>
