<svg width="36" height="36" viewBox="0 0 36 36" fill="none" xmlns="http://www.w3.org/2000/svg">
<path d="M24.1261 22.4293L21.8945 20.1924C21.45 19.7487 20.7139 19.7622 20.254 20.2234L19.1297 21.3499C19.0587 21.3107 18.9851 21.2697 18.9078 21.2262C18.1979 20.832 17.2261 20.2915 16.2036 19.266C15.1781 18.2382 14.6384 17.2628 14.2438 16.5507C14.2021 16.4753 14.1622 16.4026 14.1228 16.3335L14.8774 15.5784L15.2484 15.2061C15.7091 14.7442 15.7218 14.0067 15.2783 13.5617L13.0467 11.3246C12.6033 10.8802 11.8669 10.8937 11.4062 11.3555L10.7772 11.9895L10.7944 12.0066C10.5835 12.2763 10.4073 12.5874 10.2762 12.9228C10.1553 13.2421 10.08 13.5468 10.0456 13.8521C9.75093 16.3005 10.8672 18.5381 13.8968 21.5746C18.0845 25.7715 21.4592 25.4544 21.6048 25.439C21.9219 25.401 22.2258 25.325 22.5346 25.2048C22.8664 25.0749 23.1765 24.8986 23.4455 24.6876L23.4592 24.6999L24.0964 24.0746C24.5561 23.6128 24.5693 22.875 24.1261 22.4293Z" fill="white"/>
<rect x="0.75" y="0.75" width="34.5" height="34.5" rx="3.25" stroke="white" stroke-width="1.5"/>
</svg>
